<?xml version="1.0" standalone="no"?>
<!DOCTYPE svg PUBLIC "-//W3C//DTD SVG 20010904//EN"
 "http://www.w3.org/TR/2001/REC-SVG-20010904/DTD/svg10.dtd">
<svg version="1.0" xmlns="http://www.w3.org/2000/svg"
 width="256.000000pt" height="256.000000pt" viewBox="0 0 256.000000 256.000000"
 preserveAspectRatio="xMidYMid meet">
<metadata>
Created by potrace 1.10, written by Peter Selinger 2001-2011
</metadata>
<g transform="translate(0.000000,256.000000) scale(0.100000,-0.100000)"
fill="#000000" stroke="none">
<path d="M2044 2410 c-211 -75 -688 -305 -872 -420 -220 -138 -385 -280 -493
-423 -67 -89 -104 -157 -144 -267 -69 -189 -32 -488 86 -699 34 -61 111 -170
119 -171 3 0 23 44 44 98 21 53 53 130 72 171 l34 74 -46 176 c-25 97 -54 201
-64 231 -18 54 -19 54 -15 15 1 -22 24 -125 49 -228 l45 -188 -55 -132 c-31
-73 -61 -136 -66 -142 -26 -26 -125 150 -172 306 -43 145 -49 319 -15 449 22
82 96 225 156 300 106 133 288 294 425 375 9 6 65 39 125 74 93 56 409 219
438 227 6 2 88 37 184 78 95 42 181 76 191 76 28 0 45 -204 44 -535 -1 -235
-4 -300 -22 -405 -55 -322 -176 -582 -355 -761 -108 -108 -289 -213 -457 -266
-68 -22 -216 -43 -301 -43 -107 0 -121 -17 -149 -195 -7 -38 -13 -77 -14 -84
-3 -19 -26 -27 -26 -9 0 25 39 173 75 283 54 169 111 303 210 499 l90 180 50
14 c28 8 68 22 90 32 22 10 56 21 75 25 34 7 295 91 315 101 34 17 58 34 49
34 -13 0 -581 -177 -595 -186 -15 -9 -152 -287 -213 -431 -30 -70 -71 -177
-91 -238 -34 -101 -95 -327 -95 -350 0 -5 20 -10 44 -10 l43 0 12 75 c6 41 19
109 29 150 l17 75 111 6 c244 15 454 89 639 226 270 200 419 499 486 973 18
122 15 542 -5 720 -9 80 -16 148 -16 153 0 10 -7 8 -66 -13z"/>
<path d="M828 2240 c-446 -4 -570 -8 -580 -18 -10 -10 -14 -145 -16 -659 l-2
-646 71 -128 c39 -71 72 -129 73 -129 0 0 0 326 -2 725 l-2 725 419 0 420 0
108 60 c59 33 113 60 120 60 6 0 15 5 18 10 4 6 -7 9 -27 8 -18 -2 -288 -5
-600 -8z m476 -27 c8 -9 -24 -43 -41 -43 -7 0 -13 -5 -13 -11 0 -5 -4 -8 -9
-5 -5 3 -14 -1 -21 -9 -11 -13 -72 -15 -426 -15 -362 0 -415 -2 -428 -16 -17
-16 -17 -44 -17 -1053 0 -140 -2 -258 -5 -263 -8 -12 -41 32 -64 85 -19 42
-20 72 -20 668 -1 606 0 625 19 646 l19 23 500 0 c275 -1 502 -4 506 -7z"/>
<path d="M1634 1922 c-10 -7 -81 -88 -186 -213 -56 -67 -92 -114 -188 -248
l-74 -104 -12 29 c-37 87 -54 134 -54 148 0 9 -5 16 -11 16 -6 0 -8 -8 -6 -17
13 -45 70 -238 72 -241 1 -1 26 35 56 80 92 140 228 317 387 506 40 46 46 65
16 44z"/>
<path d="M1664 1898 c-34 -39 -118 -157 -207 -293 -84 -129 -279 -457 -274
-462 2 -1 133 31 292 72 186 47 268 72 230 68 -33 -3 -114 -18 -180 -33 -312
-74 -292 -73 -266 -22 35 69 167 285 248 407 44 66 88 135 98 153 11 17 23 32
27 32 4 0 8 5 8 10 0 6 9 20 19 31 16 17 35 59 27 59 -1 0 -11 -10 -22 -22z"/>
<path d="M2222 1115 l3 -755 -408 0 c-380 0 -410 -1 -445 -19 -63 -32 -183
-63 -292 -75 -80 -9 -105 -15 -105 -26 0 -13 89 -15 672 -18 662 -2 673 -2
693 18 20 20 20 33 20 711 l0 692 -66 113 c-37 63 -69 114 -71 114 -2 0 -2
-340 -1 -755z m84 583 l29 -43 3 -679 c2 -487 -1 -682 -9 -692 -6 -7 -8 -18
-4 -23 3 -7 0 -8 -9 -5 -9 3 -16 1 -16 -5 0 -13 -1037 -15 -1059 -2 -11 7 -7
13 17 25 17 9 38 16 47 16 9 0 32 7 53 17 20 9 40 17 44 17 3 1 9 4 13 8 4 3
187 7 408 8 273 0 405 4 414 12 10 8 13 142 13 693 0 537 3 684 13 688 6 3 13
6 13 6 1 1 14 -18 30 -41z"/>
<path d="M1720 1750 c0 -42 -4 -59 -12 -57 -7 1 -12 -5 -13 -13 0 -11 -15 -16
-57 -18 l-58 -3 0 -34 0 -35 61 0 c54 0 60 -2 49 -15 -12 -15 -4 -20 23 -16 4
0 7 -24 7 -54 0 -30 4 -55 8 -55 4 0 6 15 4 34 -2 19 1 43 7 53 10 17 10 17
11 1 0 -10 5 -18 10 -18 6 0 10 7 10 15 0 8 4 15 9 15 6 0 12 -24 14 -52 l3
-53 2 58 c2 51 4 57 23 57 14 0 19 5 16 15 -5 11 6 15 51 17 45 2 58 7 60 21
2 9 -2 17 -8 17 -7 0 -10 -7 -6 -15 4 -12 -4 -15 -47 -15 -48 1 -50 2 -33 15
17 13 18 15 3 15 -9 0 -17 5 -17 10 0 6 19 11 43 11 32 2 35 3 12 6 -57 7 -75
13 -72 26 1 6 -4 11 -10 10 -9 -2 -13 14 -13 57 l0 60 -40 0 -40 0 0 -60z m70
7 c0 -42 -1 -44 -30 -45 -29 -1 -30 1 -30 44 0 42 1 44 30 44 29 0 30 -2 30
-43z m20 -89 c25 -28 26 -62 0 -88 -40 -40 -110 -14 -110 42 0 63 68 91 110
46z m-130 -28 c0 -5 -5 -10 -11 -10 -8 0 -8 -5 1 -15 11 -13 6 -15 -34 -15
-42 0 -46 2 -46 25 0 23 4 25 45 25 25 0 45 -4 45 -10z"/>
<path d="M1069 1534 c-1 -10 0 -23 1 -29 2 -5 6 -28 10 -50 5 -22 16 -77 25
-121 l17 -82 -98 -171 c-54 -94 -102 -167 -105 -163 -4 4 -24 57 -44 117 -20
61 -44 128 -55 150 -10 22 -21 49 -24 59 -4 10 -9 17 -11 14 -3 -3 24 -97 60
-209 36 -112 67 -208 69 -214 2 -5 18 19 36 55 18 36 70 131 116 212 l84 147
-35 147 c-36 148 -44 174 -46 138z"/>
</g>
</svg>
